<?xml version="1.0" standalone="no"?>
<!DOCTYPE svg PUBLIC "-//W3C//DTD SVG 20010904//EN"
 "http://www.w3.org/TR/2001/REC-SVG-20010904/DTD/svg10.dtd">
<svg version="1.0" xmlns="http://www.w3.org/2000/svg"
 width="512.000000pt" height="512.000000pt" viewBox="0 0 512.000000 512.000000"
 preserveAspectRatio="xMidYMid meet">

<g transform="translate(0.000000,512.000000) scale(0.100000,-0.100000)"
fill="#FFFFFF" stroke="none">
<path d="M236 4090 c-99 -39 -172 -111 -213 -210 -17 -42 -18 -95 -18 -930 l0
-885 33 -67 c40 -81 110 -148 190 -180 56 -23 64 -23 495 -26 l438 -3 29 30
c35 35 38 59 9 95 l-20 26 -245 0 -244 0 0 70 0 70 1510 0 c1497 0 1510 0
1530 20 25 25 26 71 1 101 l-19 24 -1511 3 -1511 2 0 65 0 65 1870 0 1870 0 0
-64 0 -65 -241 -3 -241 -3 -24 -28 c-29 -34 -30 -56 -3 -91 l20 -26 245 0 244
0 0 -70 0 -70 -1510 0 c-1497 0 -1510 0 -1530 -20 -25 -25 -26 -71 -1 -101
l19 -24 1714 0 1713 0 57 23 c80 32 150 99 190 180 l33 67 0 890 0 890 -28 57
c-37 75 -104 143 -175 176 l-57 27 -1837 3 -1836 2 -21 -26 c-12 -15 -21 -33
-21 -40 0 -26 23 -62 47 -73 17 -8 526 -11 1824 -11 1751 0 1801 -1 1837 -19
20 -11 49 -32 64 -48 60 -63 58 -24 58 -936 0 -603 -3 -843 -12 -868 -18 -53
-45 -87 -96 -116 -43 -25 -58 -28 -164 -32 l-118 -3 0 261 0 262 -25 24 -24
25 -1971 0 -1971 0 -24 -25 -25 -24 0 -262 0 -261 -117 4 c-97 3 -125 8 -160
26 -46 24 -84 69 -102 121 -8 24 -11 271 -11 868 0 912 -2 873 58 936 58 62
57 62 415 67 l329 5 19 24 c25 30 24 72 -1 99 -21 22 -24 22 -353 22 -302 -1
-336 -3 -381 -20z"/>
<path d="M2465 3625 c-14 -13 -25 -31 -25 -39 0 -28 22 -64 47 -75 17 -8 238
-11 747 -11 717 0 724 0 750 21 33 26 36 79 6 109 -20 20 -33 20 -760 20
l-741 0 -24 -25z"/>
<path d="M4232 3627 c-29 -31 -28 -72 3 -102 23 -24 29 -25 160 -25 131 0 137
1 160 25 30 30 32 64 4 99 -20 26 -21 26 -163 26 -136 0 -144 -1 -164 -23z"/>
<path d="M1363 1568 c-12 -14 -23 -44 -27 -76 -15 -121 -80 -239 -177 -324
-50 -43 -59 -56 -59 -84 0 -41 30 -74 66 -74 99 0 272 227 309 405 20 98 19
122 -10 150 -31 32 -75 33 -102 3z"/>
<path d="M1902 1570 c-21 -20 -22 -26 -22 -270 0 -237 1 -251 20 -270 25 -25
71 -26 101 -1 l24 19 0 252 0 252 -24 19 c-30 25 -72 24 -99 -1z"/>
<path d="M2530 1570 c-19 -19 -20 -33 -20 -270 0 -237 1 -251 20 -270 25 -25
71 -26 101 -1 l24 19 0 252 0 252 -24 19 c-30 25 -76 24 -101 -1z"/>
<path d="M3119 1571 l-24 -19 0 -250 c0 -232 1 -251 19 -271 25 -27 79 -28
106 -1 19 19 20 33 20 270 0 244 -1 250 -22 270 -27 25 -69 26 -99 1z"/>
<path d="M3655 1565 c-29 -28 -30 -52 -10 -150 37 -178 210 -405 309 -405 37
0 66 33 66 74 0 29 -9 41 -59 85 -99 86 -161 200 -177 324 -11 91 -75 127
-129 72z"/>
</g>
</svg>
