<?xml version="1.0" standalone="no"?>
<!DOCTYPE svg PUBLIC "-//W3C//DTD SVG 20010904//EN"
 "http://www.w3.org/TR/2001/REC-SVG-20010904/DTD/svg10.dtd">
<svg version="1.0" xmlns="http://www.w3.org/2000/svg"
 width="512.000000pt" height="512.000000pt" viewBox="0 0 512.000000 512.000000"
 preserveAspectRatio="xMidYMid meet">

<g transform="translate(0.000000,512.000000) scale(0.100000,-0.100000)"
fill="#FFFFFF" stroke="none">
<path d="M1562 4620 c-106 -28 -187 -75 -267 -155 -81 -81 -127 -161 -155
-271 -19 -74 -20 -114 -20 -1095 l0 -1018 -269 -3 c-254 -3 -271 -4 -297 -24
-53 -39 -69 -71 -69 -134 0 -93 54 -150 150 -158 l55 -4 0 -478 0 -478 -55 -4
c-96 -8 -150 -65 -150 -158 0 -63 16 -95 69 -134 l27 -21 1979 0 1979 0 27 21
c53 39 69 71 69 134 0 93 -54 150 -150 158 l-55 4 0 478 0 478 55 4 c96 8 150
65 150 158 0 63 -16 95 -69 134 -26 20 -43 21 -297 24 l-269 3 0 1018 c0 981
-1 1021 -20 1095 -28 109 -74 190 -155 271 -81 82 -160 127 -271 155 -74 19
-113 20 -998 19 -874 0 -925 -1 -994 -19z m1963 -325 c50 -25 105 -80 130
-130 19 -39 20 -69 23 -1062 l2 -1023 -1120 0 -1120 0 0 1003 c0 689 3 1014
11 1041 23 83 99 161 180 184 22 7 365 10 944 9 883 -2 911 -3 950 -22z
m-1975 -3015 l0 -480 -270 0 -270 0 0 480 0 480 270 0 270 0 0 -480z m850 0
l0 -480 -265 0 -265 0 0 480 0 480 265 0 265 0 0 -480z m850 0 l0 -480 -265 0
-265 0 0 480 0 480 265 0 265 0 0 -480z m860 0 l0 -480 -270 0 -270 0 0 480 0
480 270 0 270 0 0 -480z"/>
</g>
</svg>
