<svg width="1024" height="1024" viewBox="0 0 1024 1024" fill="none" xmlns="http://www.w3.org/2000/svg">
<path fill-rule="evenodd" clip-rule="evenodd" d="M778.536 997.987C845.983 988.092 893.793 968.662 931.227 931.227C968.663 893.792 988.093 846 997.987 778.564C1007.96 710.586 1008 624.673 1008 512C1008 399.327 1007.96 313.414 997.987 245.436C988.093 178 968.663 130.208 931.227 92.7725C893.793 55.3381 845.983 35.9076 778.536 26.0129C710.549 16.0391 624.636 16 512 16C399.364 16 313.451 16.0391 245.464 26.0129C178.017 35.9076 130.207 55.3381 92.7725 92.7725C55.3381 130.207 35.9076 178.017 26.0129 245.464C16.0391 313.451 16 399.364 16 512C16 624.636 16.0391 710.549 26.0129 778.536C35.9076 845.983 55.3381 893.793 92.7725 931.227C130.207 968.662 178.017 988.092 245.464 997.987C313.451 1007.96 399.364 1008 512 1008C624.636 1008 710.549 1007.96 778.536 997.987ZM942.541 942.541C861.082 1024 736.36 1024 512 1024C287.64 1024 162.918 1024 81.4588 942.541C0 861.082 0 736.36 0 512C0 287.64 0 162.918 81.4588 81.4588C162.918 0 287.64 0 512 0C736.36 0 861.082 0 942.541 81.4588C1024 162.918 1024 287.566 1024 512C1024 736.434 1024 861.082 942.541 942.541Z" fill="white"/>
<path d="M704.294 410.767C665.617 410.767 636.91 440.624 636.91 477.464C636.91 507.544 658.06 531.014 684.835 537.959L629.947 622.036H681.214L727.876 543.789H762.803V622.036H805.603V410.767H704.294ZM710.181 508.046C692.578 508.046 681.678 494.231 681.678 478.485C681.678 462.739 691.668 447.736 710.181 447.736H762.859V508.046H710.181Z" fill="white"/>
<path d="M469.904 410.767L455.699 449.871L513.985 449.537L479.467 576.135C469.625 613.049 508.099 640.938 540.928 619.232L615.59 568.578L593.606 536.269L519.036 587.926L569.3 410.767H469.904Z" fill="white"/>
<path d="M550.289 383.601C566.645 383.601 579.905 371.655 579.905 356.919C579.905 342.183 566.645 330.236 550.289 330.236C533.932 330.236 520.672 342.183 520.672 356.919C520.672 371.655 533.932 383.601 550.289 383.601Z" fill="white"/>
<path d="M399.216 583.039V361.669H234.981V479.819C234.981 535.412 218.882 569.782 209.394 582.946H189.934V679.501H231.583V622.422H387.296V679.594H428.926V583.039H399.216ZM276.388 477.386V400.941H356.51V582.909H253.085C262.462 567.572 276.388 528.542 276.388 477.386Z" fill="white"/>
</svg>
