<svg width="3219" height="725" viewBox="0 0 3219 725" fill="none" xmlns="http://www.w3.org/2000/svg">
<path d="M1413.07 132.131H1046.04V562.6H1133.27V211.428H1325.84V562.6H1413.07V132.131Z" fill="white"/>
<path d="M1512.49 177.444H1600.85V104.944H1512.49V177.444ZM1515.88 562.6H1597.45V222.756H1515.88V562.6Z" fill="white"/>
<path d="M1998.19 488.967V222.756H1708.19V364.358C1708.19 422.131 1705.93 462.913 1700.26 488.967H1659.48V641.897H1737.64V562.6H1965.34V641.897H2043.5V488.967H1998.19ZM1779.56 491.233C1785.22 458.381 1787.49 416.467 1787.49 367.756V294.124H1917.76V491.233H1779.56Z" fill="white"/>
<path d="M2410.26 222.756H2099.87V562.6H2181.43V296.389H2328.7V562.6H2410.26V222.756Z" fill="white"/>
<path d="M2726.05 222.756L2576.51 447.053V222.756H2496.08V562.6H2577.65L2728.31 338.303V562.6H2807.61V222.756H2726.05Z" fill="white"/>
<path d="M3044.09 568.264C3119.99 568.264 3180.03 530.881 3199.29 466.311L3122.26 442.522C3108.66 478.772 3081.48 500.295 3042.96 500.295C2988.59 500.295 2954.6 458.381 2954.6 392.678C2954.6 326.975 2988.59 285.061 3042.96 285.061C3081.48 285.061 3108.66 306.584 3121.13 342.834L3199.29 319.045C3180.03 254.475 3119.99 217.092 3044.09 217.092C2941.01 217.092 2870.77 287.327 2870.77 392.678C2870.77 498.03 2941.01 568.264 3044.09 568.264Z" fill="white"/>
<path d="M362.5 11.3708C518.838 11.3708 604.945 11.3708 659.277 65.7231C713.609 120.075 713.629 206.162 713.629 362.5C713.629 518.838 713.629 604.945 659.277 659.277C604.925 713.609 518.92 713.629 362.5 713.629C206.08 713.629 120.055 713.629 65.7231 659.277C11.3914 604.925 11.3708 518.92 11.3708 362.5C11.3708 206.08 11.3708 120.055 65.7231 65.7231C120.075 11.3914 206.183 11.3708 362.5 11.3708ZM362.5 0C203.66 0 115.341 0 57.6808 57.6808C0.020676 115.361 0 203.66 0 362.5C0 521.34 0 609.659 57.6808 667.319C115.361 724.978 203.66 725 362.5 725C521.34 725 609.659 725 667.34 667.319C725.022 609.639 725 521.34 725 362.5C725 203.66 725 115.341 667.34 57.6808C609.68 0.020676 521.34 0 362.5 0Z" fill="white"/>
<path d="M499.056 291.048C492.78 290.929 486.544 292.07 480.716 294.401C474.888 296.733 469.587 300.209 465.125 304.625C460.664 309.04 457.132 314.305 454.74 320.108C452.347 325.912 451.142 332.136 451.196 338.412C451.278 348.343 454.672 357.96 460.84 365.743C467.008 373.525 475.597 379.026 485.246 381.374L446.255 441.101H482.683L515.761 385.508H540.57V441.101H570.961V291.048H499.056ZM503.191 360.12C490.787 360.12 482.951 350.321 482.951 339.136C482.951 327.951 490.042 317.305 503.191 317.305H540.611V360.12H503.191Z" fill="white"/>
<path d="M332.607 291.051L322.518 318.816L363.866 318.589L339.347 408.48C332.359 434.695 359.669 454.501 382.99 439.078L436.06 403.146L420.472 380.198L367.505 416.874L403.147 291.051H332.607Z" fill="white"/>
<path d="M410.727 252.801C410.727 263.262 406.095 271.739 389.68 271.739C373.989 271.739 368.634 263.262 368.634 252.801C368.634 242.34 373.989 233.863 389.68 233.863C406.095 233.863 410.727 242.34 410.727 252.801Z" fill="white"/>
<path d="M282.406 413.317V256.194H165.783V340.089C165.783 379.556 154.35 403.973 147.611 413.317H133.779V481.914H163.323V441.352H273.909V481.914H303.473V413.317H282.406ZM195.182 338.353V284.063H252.035V413.317H178.581C185.299 402.401 195.12 374.677 195.12 338.353" fill="white"/>
</svg>
