<svg width="874" height="160" viewBox="0 0 874 160" fill="none" xmlns="http://www.w3.org/2000/svg">
<g clip-path="url(#clip0_12246_15420)">
<path fill-rule="evenodd" clip-rule="evenodd" d="M121.646 155.935C132.185 154.389 139.655 151.353 145.504 145.504C151.354 139.655 154.389 132.187 155.935 121.651C157.494 111.029 157.5 97.6052 157.5 80C157.5 62.3948 157.494 48.9709 155.935 38.3494C154.389 27.8125 151.354 20.345 145.504 14.4957C139.655 8.64657 132.185 5.61056 121.646 4.06452C111.023 2.5061 97.5993 2.5 80 2.5C62.4007 2.5 48.9767 2.5061 38.3537 4.06452C27.8151 5.61056 20.3448 8.64657 14.4957 14.4957C8.64657 20.3448 5.61056 27.8151 4.06452 38.3537C2.5061 48.9767 2.5 62.4007 2.5 80C2.5 97.5993 2.5061 111.023 4.06452 121.646C5.61056 132.185 8.64657 139.655 14.4957 145.504C20.3448 151.353 27.8151 154.389 38.3537 155.935C48.9767 157.494 62.4007 157.5 80 157.5C97.5993 157.5 111.023 157.494 121.646 155.935ZM147.272 147.272C134.544 160 115.056 160 80 160C44.9438 160 25.4559 160 12.7279 147.272C0 134.544 0 115.056 0 80C0 44.9438 0 25.4559 12.7279 12.7279C25.4559 0 44.9438 0 80 0C115.056 0 134.544 0 147.272 12.7279C160 25.4559 160 44.9322 160 80C160 115.068 160 134.544 147.272 147.272Z" fill="white"/>
<path d="M78.7215 62.1133C78.7215 64.1986 77.803 65.9116 74.5012 65.9116C71.3732 65.9116 70.2808 64.2234 70.2808 62.1133C70.2808 60.0279 71.3483 58.315 74.5012 58.315C77.803 58.315 78.7215 60.0031 78.7215 62.1133Z" fill="white"/>
<path d="M76.9837 90.4143L69.685 95.429L76.9092 69.9581H63.8262L61.9643 75.0721L69.6354 75.0225L64.6455 93.2692C64.0248 95.6028 64.7944 97.8619 66.6315 99.2025C68.4934 100.543 70.976 100.543 73.0365 99.1528L79.8138 94.5601C79.1187 93.5174 77.7781 91.5066 76.9837 90.4143Z" fill="white"/>
<path d="M41.0861 60.3507C46.2002 60.3507 50.8922 62.0388 53.3499 65.4399C55.8076 68.841 57.0241 73.7812 57.0241 80.2855C57.0241 86.7898 55.8076 91.7549 53.3499 95.1311C50.8922 98.5322 47.1187 100.22 42.0047 100.22H28.9465V60.3507H41.0861ZM41.6323 94.9822C44.5617 94.9822 46.7463 93.9892 48.1862 92.0279C49.6261 90.0667 50.3212 87.2615 50.3212 83.6121V76.9589C50.3212 73.3095 49.6013 70.5043 48.1862 68.5182C46.7463 66.557 44.5865 65.564 41.6323 65.564H35.3266V94.9325H41.6323V94.9822Z" fill="white"/>
<path d="M114.123 100.121C118.219 100.121 121.943 98.3088 124.053 95.28L124.202 95.0566L124.251 95.3297C124.723 98.4577 126.486 99.8479 129.961 99.8479C130.929 99.8479 131.724 99.7983 132.344 99.6742V93.6664H131.302C130.085 93.6664 129.465 93.0209 129.465 91.7548V79.2428C129.465 73.0613 125.195 69.3623 118.02 69.3623C113.154 69.3623 108.959 71.0504 105.558 74.3522L109.505 78.6967C111.814 76.3134 114.619 75.0473 117.623 75.0473C121.049 75.0473 123.283 76.4624 123.283 78.647C123.283 80.7572 120.701 81.2785 117.077 81.7502C114.396 82.0977 111.317 82.6439 108.909 84.059C106.178 85.6726 104.838 88.0807 104.838 91.4569C104.863 96.6206 108.587 100.121 114.123 100.121ZM117.598 86.3677L117.822 86.3181C120.254 85.9209 121.818 85.623 122.936 84.9278L123.109 84.8286V88.1303C123.109 91.73 119.708 94.6346 115.538 94.6346C112.906 94.6346 111.317 93.2195 111.317 90.8115C111.342 87.5097 114.371 86.9635 117.598 86.3677Z" fill="white"/>
<path d="M99.55 62.1133C99.55 64.1986 98.6315 65.9116 95.3297 65.9116C92.2017 65.9116 91.1094 64.2234 91.1094 62.1133C91.1094 60.0279 92.1769 58.315 95.3297 58.315C98.6067 58.315 99.55 60.0031 99.55 62.1133Z" fill="white"/>
<path d="M97.3406 90.6625L90.5384 95.429L97.7626 69.9581H84.8037L82.9418 75.0721L90.4888 75.0225L85.4988 93.2692C84.8782 95.6028 85.6478 97.8619 87.4849 99.2025C89.3468 100.543 91.8293 100.543 93.8898 99.1528L100.171 94.8084C99.4756 93.7905 98.135 91.7797 97.3406 90.6625Z" fill="white"/>
</g>
<path d="M256 118.625C248.333 118.625 241 117.458 234 115.125C227 112.625 221 109.208 216 104.875L226.75 90.375C234.917 98.2083 244.917 102.125 256.75 102.125C262.583 102.125 267.083 101.208 270.25 99.375C273.583 97.375 275.25 94.625 275.25 91.125C275.25 88.125 273.833 85.875 271 84.375C268.333 82.875 263.167 81.0417 255.5 78.875C248 76.7083 241.833 74.625 237 72.625C232.333 70.4583 228.25 67.4583 224.75 63.625C221.417 59.7917 219.75 54.875 219.75 48.875C219.75 40.2083 223.083 33.4583 229.75 28.625C236.417 23.625 245.5 21.125 257 21.125C270.333 21.125 282.167 24.9583 292.5 32.625L282 46.875C274.667 40.875 266 37.875 256 37.875C250.833 37.875 246.667 38.7917 243.5 40.625C240.333 42.4583 238.75 44.875 238.75 47.875C238.75 50.875 240.333 53.2917 243.5 55.125C246.833 56.9583 252.25 58.875 259.75 60.875C270.917 63.875 279.5 67.375 285.5 71.375C291.667 75.375 294.75 81.4583 294.75 89.625C294.75 98.7917 291.333 105.958 284.5 111.125C277.667 116.125 268.167 118.625 256 118.625Z" fill="white"/>
<path d="M308.69 42.375H326.69V117.375H308.69V42.375ZM307.94 16.375H327.44V32.375H307.94V16.375Z" fill="white"/>
<path d="M416.13 42.375L415.88 108.125C415.88 118.958 412.547 127.542 405.88 133.875C399.213 140.375 389.88 143.625 377.88 143.625C364.213 143.625 353.797 140.208 346.63 133.375L355.13 120.875C358.297 123.542 361.63 125.458 365.13 126.625C368.797 127.958 372.963 128.625 377.63 128.625C384.963 128.625 390.297 126.792 393.63 123.125C397.13 119.458 398.88 114.542 398.88 108.375V102.375C395.88 105.875 392.297 108.625 388.13 110.625C383.963 112.625 379.38 113.625 374.38 113.625C364.547 113.625 356.63 110.292 350.63 103.625C344.797 96.9583 341.88 88.2083 341.88 77.375C341.88 66.5417 344.88 57.7917 350.88 51.125C356.88 44.4583 364.713 41.125 374.38 41.125C385.047 41.125 393.38 44.875 399.38 52.375L400.13 42.375H416.13ZM379.63 99.625C385.63 99.625 390.297 97.7083 393.63 93.875C397.13 89.875 398.88 84.4583 398.88 77.625C398.88 70.9583 397.13 65.7083 393.63 61.875C390.297 58.0417 385.63 56.125 379.63 56.125C373.63 56.125 368.88 58.125 365.38 62.125C361.88 65.9583 360.13 71.125 360.13 77.625C360.13 84.4583 361.88 89.875 365.38 93.875C368.88 97.7083 373.63 99.625 379.63 99.625Z" fill="white"/>
<path d="M477.57 41.125C485.57 41.125 492.07 43.7917 497.07 49.125C502.237 54.4583 504.82 61.375 504.82 69.875V117.375H486.82V74.125C486.82 68.4583 485.487 64.0417 482.82 60.875C480.32 57.7083 476.737 56.125 472.07 56.125C466.737 56.125 462.237 57.875 458.57 61.375C454.903 64.7083 453.07 69.0417 453.07 74.375V117.375H435.07V42.375H451.07L452.07 53.375C454.903 49.5417 458.487 46.5417 462.82 44.375C467.32 42.2083 472.237 41.125 477.57 41.125Z" fill="white"/>
<path d="M589.01 101.875V117.375C587.343 117.708 585.177 117.875 582.51 117.875C577.843 117.875 574.26 116.958 571.76 115.125C569.427 113.292 567.927 110.375 567.26 106.375C564.427 110.208 560.677 113.208 556.01 115.375C551.51 117.542 546.51 118.625 541.01 118.625C533.677 118.625 527.76 116.625 523.26 112.625C518.76 108.625 516.51 103.292 516.51 96.625C516.51 88.125 519.51 82.2083 525.51 78.875C531.51 75.5417 539.26 73.2917 548.76 72.125C554.427 71.4583 558.51 70.625 561.01 69.625C563.51 68.625 564.76 66.9583 564.76 64.625C564.76 61.9583 563.427 59.875 560.76 58.375C558.26 56.7083 554.76 55.875 550.26 55.875C542.26 55.875 535.177 58.9583 529.01 65.125L518.26 53.875C527.26 45.375 538.26 41.125 551.26 41.125C560.76 41.125 568.177 43.375 573.51 47.875C578.843 52.2083 581.51 58.2917 581.51 66.125V97.375C581.51 100.375 583.01 101.875 586.01 101.875H589.01ZM544.76 104.375C550.093 104.375 554.677 102.792 558.51 99.625C562.343 96.4583 564.26 92.7083 564.26 88.375V80.625C562.093 81.7917 557.593 82.9583 550.76 84.125C545.093 85.125 540.843 86.2917 538.01 87.625C535.343 88.9583 534.01 91.4583 534.01 95.125C534.01 97.9583 534.927 100.208 536.76 101.875C538.76 103.542 541.427 104.375 544.76 104.375Z" fill="white"/>
<path d="M625.45 57.375V92.875C625.45 96.2083 626.283 98.625 627.95 100.125C629.617 101.458 632.117 102.125 635.45 102.125C639.95 102.125 643.95 101.708 647.45 100.875V116.875C642.783 118.208 637.45 118.875 631.45 118.875C623.783 118.875 617.867 117.042 613.7 113.375C609.533 109.542 607.45 104.042 607.45 96.875V57.375H592.45V42.375H607.45L609.45 22.375H625.45V42.375H647.45V57.375H625.45Z" fill="white"/>
<path d="M729.64 42.375V117.375H713.64L712.64 106.375C709.807 110.208 706.14 113.208 701.64 115.375C697.307 117.542 692.473 118.625 687.14 118.625C679.14 118.625 672.557 115.958 667.39 110.625C662.39 105.292 659.89 98.375 659.89 89.875V42.375H677.89V85.625C677.89 91.2917 679.14 95.7083 681.64 98.875C684.307 102.042 687.973 103.625 692.64 103.625C697.973 103.625 702.473 101.958 706.14 98.625C709.807 95.125 711.64 90.7083 711.64 85.375V42.375H729.64Z" fill="white"/>
<path d="M791.08 41.375C792.58 41.375 794.663 41.5417 797.33 41.875L797.08 58.875C793.413 58.375 789.747 58.125 786.08 58.125C780.247 58.125 775.497 59.7083 771.83 62.875C768.33 66.0417 766.58 70.4583 766.58 76.125V117.375H748.58V42.375H764.58L765.58 54.125C768.413 50.125 771.997 47.0417 776.33 44.875C780.663 42.5417 785.58 41.375 791.08 41.375Z" fill="white"/>
<path d="M817.27 85.625C818.103 91.2917 820.353 95.7083 824.02 98.875C827.687 102.042 832.437 103.625 838.27 103.625C847.27 103.625 854.353 100.625 859.52 94.625L870.77 105.375C863.103 114.208 852.27 118.625 838.27 118.625C825.77 118.625 816.103 115.042 809.27 107.875C802.603 100.708 799.27 91.375 799.27 79.875C799.27 68.375 802.687 59.0417 809.52 51.875C816.52 44.7083 825.687 41.125 837.02 41.125C848.187 41.125 857.103 44.7083 863.77 51.875C870.437 58.875 873.77 68.2083 873.77 79.875C873.77 82.0417 873.52 83.9583 873.02 85.625H817.27ZM837.02 55.625C831.853 55.625 827.52 57.125 824.02 60.125C820.687 62.9583 818.52 67.0417 817.52 72.375H855.52C854.52 67.0417 852.353 62.9583 849.02 60.125C845.853 57.125 841.853 55.625 837.02 55.625Z" fill="white"/>
<defs>
<clipPath id="clip0_12246_15420">
<rect width="160" height="160" fill="white"/>
</clipPath>
</defs>
</svg>
