<svg width="55" height="25" viewBox="0 0 55 25" fill="none" xmlns="http://www.w3.org/2000/svg">
<path d="M21.875 2.32812C21.6458 2.32812 21.4479 2.24479 21.2812 2.07812C21.1146 1.91146 21.0312 1.70833 21.0312 1.46875C21.0312 1.22917 21.1146 1.02604 21.2812 0.859375C21.4479 0.692708 21.6458 0.609375 21.875 0.609375H32.9688C33.2083 0.609375 33.4115 0.692708 33.5781 0.859375C33.7448 1.02604 33.8281 1.22917 33.8281 1.46875C33.8281 1.70833 33.7448 1.91146 33.5781 2.07812C33.4115 2.24479 33.2083 2.32812 32.9688 2.32812H21.875ZM21.7969 24.8281C21.5469 24.8281 21.3385 24.7396 21.1719 24.5625C21.0052 24.3958 20.9219 24.1979 20.9219 23.9688C20.9219 23.7292 21.0052 23.526 21.1719 23.3594C21.3385 23.1927 21.5469 23.1094 21.7969 23.1094H33.0781C33.3177 23.1094 33.5208 23.1927 33.6875 23.3594C33.8542 23.526 33.9375 23.7292 33.9375 23.9688C33.9375 24.1979 33.8542 24.3958 33.6875 24.5625C33.5208 24.7396 33.3177 24.8281 33.0781 24.8281H21.7969ZM24.7188 20.9062C24.375 20.9062 24.0833 20.7865 23.8438 20.5469C23.6146 20.3073 23.5 20.0208 23.5 19.6875C23.5 19.3438 23.6146 19.0521 23.8438 18.8125C24.0833 18.5729 24.375 18.4531 24.7188 18.4531C25.0625 18.4531 25.3542 18.5729 25.5938 18.8125C25.8333 19.0521 25.9531 19.3438 25.9531 19.6875C25.9531 20.0208 25.8333 20.3073 25.5938 20.5469C25.3542 20.7865 25.0625 20.9062 24.7188 20.9062ZM24.7188 16.2656C24.375 16.2656 24.0833 16.1458 23.8438 15.9062C23.6146 15.6667 23.5 15.3802 23.5 15.0469C23.5 14.7031 23.6146 14.4115 23.8438 14.1719C24.0833 13.9219 24.375 13.7969 24.7188 13.7969C25.0625 13.7969 25.3542 13.9219 25.5938 14.1719C25.8333 14.4115 25.9531 14.7031 25.9531 15.0469C25.9531 15.3802 25.8333 15.6667 25.5938 15.9062C25.3542 16.1458 25.0625 16.2656 24.7188 16.2656ZM30.25 20.9062C29.9167 20.9062 29.6302 20.7865 29.3906 20.5469C29.151 20.3073 29.0312 20.0208 29.0312 19.6875C29.0312 19.3438 29.1458 19.0521 29.375 18.8125C29.6146 18.5729 29.9062 18.4531 30.25 18.4531C30.5938 18.4531 30.8854 18.5729 31.125 18.8125C31.375 19.0521 31.5 19.3438 31.5 19.6875C31.5 20.0208 31.375 20.3073 31.125 20.5469C30.8854 20.7865 30.5938 20.9062 30.25 20.9062ZM24.7188 11.625C24.375 11.625 24.0833 11.5052 23.8438 11.2656C23.6146 11.0156 23.5 10.724 23.5 10.3906C23.5 10.0469 23.6146 9.75521 23.8438 9.51562C24.0833 9.27604 24.375 9.15625 24.7188 9.15625C25.0625 9.15625 25.3542 9.27604 25.5938 9.51562C25.8333 9.75521 25.9531 10.0469 25.9531 10.3906C25.9531 10.724 25.8333 11.0156 25.5938 11.2656C25.3542 11.5052 25.0625 11.625 24.7188 11.625ZM30.25 16.2656C29.9167 16.2656 29.6302 16.1458 29.3906 15.9062C29.151 15.6667 29.0312 15.3802 29.0312 15.0469C29.0312 14.7031 29.1458 14.4115 29.375 14.1719C29.6146 13.9219 29.9062 13.7969 30.25 13.7969C30.5938 13.7969 30.8854 13.9219 31.125 14.1719C31.375 14.4115 31.5 14.7031 31.5 15.0469C31.5 15.3802 31.375 15.6667 31.125 15.9062C30.8854 16.1458 30.5938 16.2656 30.25 16.2656ZM24.7188 6.96875C24.375 6.96875 24.0833 6.84896 23.8438 6.60938C23.6146 6.36979 23.5 6.08333 23.5 5.75C23.5 5.40625 23.6146 5.11458 23.8438 4.875C24.0833 4.63542 24.375 4.51562 24.7188 4.51562C25.0625 4.51562 25.3542 4.63542 25.5938 4.875C25.8333 5.11458 25.9531 5.40625 25.9531 5.75C25.9531 6.08333 25.8333 6.36979 25.5938 6.60938C25.3542 6.84896 25.0625 6.96875 24.7188 6.96875ZM30.25 11.625C29.9167 11.625 29.6302 11.5052 29.3906 11.2656C29.151 11.0156 29.0312 10.724 29.0312 10.3906C29.0312 10.0469 29.1458 9.75521 29.375 9.51562C29.6146 9.27604 29.9062 9.15625 30.25 9.15625C30.5938 9.15625 30.8854 9.27604 31.125 9.51562C31.375 9.75521 31.5 10.0469 31.5 10.3906C31.5 10.724 31.375 11.0156 31.125 11.2656C30.8854 11.5052 30.5938 11.625 30.25 11.625ZM30.25 6.96875C29.9167 6.96875 29.6302 6.84896 29.3906 6.60938C29.151 6.36979 29.0312 6.08333 29.0312 5.75C29.0312 5.40625 29.1458 5.11458 29.375 4.875C29.6146 4.63542 29.9062 4.51562 30.25 4.51562C30.5938 4.51562 30.8854 4.63542 31.125 4.875C31.375 5.11458 31.5 5.40625 31.5 5.75C31.5 6.08333 31.375 6.36979 31.125 6.60938C30.8854 6.84896 30.5938 6.96875 30.25 6.96875ZM20.4062 12.7188C20.4062 12.8854 20.3646 13.0677 20.2812 13.2656C20.1979 13.4531 20.0417 13.6562 19.8125 13.875L12.4531 20.7656C12.276 20.9427 12.0885 21.0833 11.8906 21.1875C11.6927 21.2917 11.4792 21.3438 11.25 21.3438C10.9062 21.3438 10.6302 21.2292 10.4219 21C10.2135 20.7708 10.1094 20.4948 10.1094 20.1719V16.6562H2.53125C1.79167 16.6562 1.21354 16.4583 0.796875 16.0625C0.390625 15.6562 0.1875 15.0885 0.1875 14.3594V11.1094C0.1875 10.3802 0.390625 9.8125 0.796875 9.40625C1.21354 9 1.79167 8.79688 2.53125 8.79688H10.1094V5.3125C10.1094 4.98958 10.2135 4.70833 10.4219 4.46875C10.6302 4.21875 10.9062 4.09375 11.25 4.09375C11.4792 4.09375 11.6875 4.15104 11.875 4.26562C12.0625 4.36979 12.2552 4.51562 12.4531 4.70312L19.8125 11.5625C20.0417 11.7812 20.1979 11.9896 20.2812 12.1875C20.3646 12.375 20.4062 12.5521 20.4062 12.7188ZM54.7969 12.7188C54.7969 12.8854 54.7552 13.0677 54.6719 13.2656C54.5885 13.4531 54.4375 13.6562 54.2188 13.875L46.8594 20.7656C46.6823 20.9427 46.4896 21.0833 46.2812 21.1875C46.0833 21.2917 45.8698 21.3438 45.6406 21.3438C45.2969 21.3438 45.0208 21.2292 44.8125 21C44.6042 20.7708 44.5 20.4948 44.5 20.1719V16.6562H36.9375C36.1875 16.6562 35.6094 16.4583 35.2031 16.0625C34.7969 15.6562 34.5938 15.0885 34.5938 14.3594V11.1094C34.5938 10.3802 34.7969 9.8125 35.2031 9.40625C35.6094 9 36.1875 8.79688 36.9375 8.79688H44.5V5.3125C44.5 4.98958 44.6042 4.70833 44.8125 4.46875C45.0208 4.21875 45.3021 4.09375 45.6562 4.09375C45.8854 4.09375 46.0938 4.15104 46.2812 4.26562C46.4688 4.36979 46.6615 4.51562 46.8594 4.70312L54.2188 11.5625C54.4479 11.7812 54.599 11.9896 54.6719 12.1875C54.7552 12.375 54.7969 12.5521 54.7969 12.7188ZM36.9531 15.1094H45.5781C45.9323 15.1094 46.1094 15.2865 46.1094 15.6406V19.2656L52.7188 13.1094C52.8021 13.026 52.8594 12.9583 52.8906 12.9062C52.9219 12.8438 52.9375 12.7812 52.9375 12.7188C52.9375 12.5938 52.8646 12.4688 52.7188 12.3438L46.1094 6.10938V9.82812C46.1094 10.1823 45.9323 10.3594 45.5781 10.3594H36.9531C36.4115 10.3594 36.1406 10.625 36.1406 11.1562V14.3281C36.1406 14.849 36.4115 15.1094 36.9531 15.1094Z" fill="white"/>
</svg>
