<svg width="73" height="97" viewBox="0 0 73 97" fill="none" xmlns="http://www.w3.org/2000/svg">
<path d="M16.6899 68.1444L16.6705 61.1444L19.4005 61.1369C20.0138 61.1352 20.5374 61.2304 20.9713 61.4225C21.4052 61.6146 21.7393 61.8937 21.9736 62.2597C22.208 62.6257 22.3258 63.0621 22.3272 63.5688C22.3286 64.0754 22.2132 64.5124 21.9809 64.8797C21.7485 65.2404 21.416 65.518 20.9832 65.7125C20.5504 65.907 20.0273 66.0051 19.414 66.0068L17.234 66.0129L17.6827 65.5516L17.6899 68.1416L16.6899 68.1444ZM21.3699 68.1314L19.5829 65.5964L20.6529 65.5934L22.4599 68.1284L21.3699 68.1314ZM17.683 65.6516L17.2316 65.1629L19.3816 65.1569C20.0216 65.1552 20.5046 65.0171 20.8305 64.7429C21.1631 64.462 21.3286 64.0715 21.3272 63.5715C21.3259 63.0715 21.1581 62.6853 20.824 62.4129C20.4966 62.1405 20.0129 62.0052 19.3729 62.0069L17.2229 62.0129L17.6715 61.5117L17.683 65.6516ZM29.5544 64.1287L33.1544 64.1187L33.1568 64.9687L29.5568 64.9787L29.5544 64.1287ZM29.6531 67.2384L33.7331 67.2271L33.7355 68.0971L28.6555 68.1112L28.6361 61.1112L33.5761 61.0975L33.5785 61.9675L29.6385 61.9785L29.6531 67.2384ZM40.0547 68.0796L40.0352 61.0796L40.8552 61.0773L45.5012 66.8145L45.0712 66.8157L45.0552 61.0657L46.0552 61.0629L46.0746 68.0629L45.2547 68.0652L40.6087 62.328L41.0387 62.3268L41.0547 68.0768L40.0547 68.0796ZM54.2598 68.0402L54.2428 61.9102L51.8429 61.9169L51.8404 61.0469L57.6304 61.0308L57.6328 61.9008L55.2328 61.9074L55.2498 68.0374L54.2598 68.0402ZM62.0274 68.0186L65.178 61.0099L66.168 61.0071L69.3674 67.9983L68.3174 68.0012L65.4695 61.569L65.8695 61.5679L63.0574 68.0158L62.0274 68.0186ZM63.3725 66.2649L63.6403 65.4641L67.5803 65.4532L67.8725 66.2524L63.3725 66.2649Z" fill="white"/>
<path d="M72.0514 18.8777L72.0906 32.9777C72.0989 35.9777 71.673 38.6789 70.813 41.0813C69.9532 43.5503 68.6923 45.6205 67.0302 47.2918C65.4349 48.9629 63.4717 50.235 61.1408 51.1081C58.8767 52.0478 56.2781 52.5216 53.3447 52.5298C50.1447 52.5386 47.076 51.7805 44.1384 50.2553C41.201 48.7968 38.7954 46.7701 36.9215 44.1753C35.1145 41.647 34.2065 38.7828 34.1976 35.5828C33.7341 36.7174 32.7709 37.9535 31.3079 39.2909C29.9116 40.6281 28.5482 41.7985 27.2176 42.8022C27.2176 42.8022 26.5522 43.2374 25.2212 44.1078C23.9572 45.0446 22.3937 46.1823 20.5307 47.5208C18.6679 48.926 16.8385 50.331 15.0424 51.736C13.2463 53.141 11.8163 54.345 10.7524 55.348C9.28942 56.6853 7.99312 58.0223 6.86349 59.3588C5.73386 60.6952 4.83784 62.1311 4.17543 63.6662C3.51321 65.2681 3.18478 67.0357 3.19014 68.969L2.19014 68.9718L2.17488 63.4718C2.16638 60.4051 2.62564 57.7372 3.55268 55.4679C4.47991 53.2653 5.60806 51.3955 6.93713 49.8585C8.33287 48.3213 9.6626 47.0176 10.9263 45.9474C11.1924 45.7467 11.9575 45.1779 13.2216 44.2411C14.4858 43.3709 15.9829 42.3001 17.7127 41.0286C19.5093 39.8236 21.2727 38.6187 23.0027 37.4139C24.7327 36.2091 26.1965 35.1717 27.3941 34.3017C28.6583 33.4315 29.3903 32.9295 29.5899 32.7956C31.253 31.5243 32.7825 30.1201 34.1782 28.5829C35.574 27.0456 36.2693 25.377 36.2643 23.577L37.2643 23.5743C37.2643 23.5743 37.2324 24.0744 37.1685 25.0745C37.1714 26.1412 37.2083 27.4078 37.279 28.8742C37.3505 30.6074 37.6224 32.5066 38.0948 34.572C38.5672 36.6374 39.5393 38.568 41.0109 40.3639C42.4826 42.1599 44.7197 43.5203 47.7223 44.4453C48.4562 44.6433 49.3566 44.8075 50.4237 44.9378C51.5573 45.068 52.6574 45.0983 53.7239 45.0287C58.257 44.9494 61.8538 43.7728 64.5142 41.4987C67.2414 39.2912 68.6998 36.3204 68.8895 32.5866C69.0176 30.7195 69.0456 28.7861 68.9734 26.7863C68.968 24.853 68.9635 23.2197 68.9598 21.8863C68.9561 20.553 68.9542 19.8863 68.9542 19.8863C69.0209 19.8861 69.2873 19.7854 69.7534 19.5841C70.2863 19.4493 70.7859 19.2812 71.252 19.08C71.785 18.9451 72.0514 18.8777 72.0514 18.8777ZM72.055 20.1777L2.0553 20.3719L2.03727 13.872L72.037 13.6778L72.055 20.1777ZM9.33808 14.1517L2.0381 14.172L2.01591 6.17199L3.0159 6.16922C3.0159 6.16922 3.01646 6.36922 3.01757 6.76922C3.01886 7.23588 3.01951 7.46922 3.01951 7.46922C3.02432 9.20254 3.62839 10.6675 4.83171 11.8642C6.10189 13.1274 7.60373 13.7899 9.33724 13.8517L9.33808 14.1517ZM64.7379 13.998L64.737 13.698C66.4702 13.6265 67.935 12.9558 69.1315 11.6858C70.3948 10.4823 71.0241 9.01388 71.0193 7.28055C71.0193 7.28055 71.0186 7.04722 71.0173 6.58055C71.0162 6.18056 71.0156 5.98056 71.0156 5.98056L72.0156 5.97778L72.0378 13.9778L64.7379 13.998ZM9.35444 20.0517L9.35528 20.3517C7.62195 20.3565 6.12371 20.994 4.86057 22.2642C3.66408 23.5342 3.06825 25.0358 3.07306 26.7691C3.07306 26.7691 3.07361 26.9691 3.07472 27.3691C3.07583 27.7691 3.07639 27.9691 3.07639 27.9691L2.07639 27.9719L2.05447 20.0719L9.35444 20.0517Z" fill="white"/>
<rect x="34.5322" y="49.0215" width="2.9053" height="2.72372" rx="1" transform="rotate(89.841 34.5322 49.0215)" fill="#FCBF29"/>
<rect x="31.2637" y="52.459" width="2.9053" height="2.72372" rx="1" transform="rotate(89.841 31.2637 52.459)" fill="#FCBF29"/>
<rect x="31.2637" y="49" width="2.9053" height="2.72372" rx="1" transform="rotate(89.841 31.2637 49)" fill="#FCBF29"/>
<rect x="34.457" y="52.459" width="2.9053" height="2.72372" rx="1" transform="rotate(89.841 34.457 52.459)" fill="#FCBF29"/>
</svg>
