<svg width="32" height="27" viewBox="0 0 32 27" fill="none" xmlns="http://www.w3.org/2000/svg">
<path d="M4.3125 26.6562C3.3125 26.6562 2.50521 26.3385 1.89062 25.7031C1.28646 25.0781 0.984375 24.25 0.984375 23.2188V4.21875C0.984375 3.1875 1.28646 2.35938 1.89062 1.73438C2.50521 1.10938 3.3125 0.796875 4.3125 0.796875H28.6719C29.6719 0.796875 30.474 1.10938 31.0781 1.73438C31.6927 2.35938 32 3.1875 32 4.21875V23.2188C32 24.25 31.6927 25.0781 31.0781 25.7031C30.474 26.3385 29.6719 26.6562 28.6719 26.6562H4.3125ZM4.32812 24.7344H28.6719C29.099 24.7344 29.4375 24.5885 29.6875 24.2969C29.9479 24.0052 30.0781 23.625 30.0781 23.1562V4.28125C30.0781 3.8125 29.9479 3.4375 29.6875 3.15625C29.4375 2.86458 29.099 2.71875 28.6719 2.71875H4.32812C3.90104 2.71875 3.55729 2.86458 3.29688 3.15625C3.03646 3.4375 2.90625 3.8125 2.90625 4.28125V23.1562C2.90625 23.625 3.03646 24.0052 3.29688 24.2969C3.55729 24.5885 3.90104 24.7344 4.32812 24.7344ZM7.34375 6.8125C6.95833 6.8125 6.63542 6.68229 6.375 6.42188C6.11458 6.16146 5.98438 5.84375 5.98438 5.46875C5.98438 5.08333 6.11458 4.76042 6.375 4.5C6.63542 4.23958 6.95833 4.10938 7.34375 4.10938C7.71875 4.10938 8.03646 4.23958 8.29688 4.5C8.56771 4.76042 8.70312 5.08333 8.70312 5.46875C8.70312 5.84375 8.56771 6.16146 8.29688 6.42188C8.03646 6.68229 7.71875 6.8125 7.34375 6.8125ZM11.4062 6.8125C11.0312 6.8125 10.7135 6.68229 10.4531 6.42188C10.1927 6.16146 10.0625 5.84375 10.0625 5.46875C10.0625 5.08333 10.1927 4.76042 10.4531 4.5C10.7135 4.23958 11.0312 4.10938 11.4062 4.10938C11.7917 4.10938 12.1146 4.23958 12.375 4.5C12.6458 4.76042 12.7812 5.08333 12.7812 5.46875C12.7812 5.84375 12.6458 6.16146 12.375 6.42188C12.1146 6.68229 11.7917 6.8125 11.4062 6.8125ZM15.4844 6.8125C15.099 6.8125 14.776 6.68229 14.5156 6.42188C14.2552 6.16146 14.125 5.84375 14.125 5.46875C14.125 5.08333 14.2552 4.76042 14.5156 4.5C14.776 4.23958 15.099 4.10938 15.4844 4.10938C15.8594 4.10938 16.1771 4.23958 16.4375 4.5C16.7083 4.76042 16.8438 5.08333 16.8438 5.46875C16.8438 5.84375 16.7083 6.16146 16.4375 6.42188C16.1771 6.68229 15.8594 6.8125 15.4844 6.8125ZM22.4531 6.10938C22.2552 6.10938 22.0938 6.05208 21.9688 5.9375C21.8438 5.8125 21.7812 5.65104 21.7812 5.45312C21.7812 5.26562 21.8438 5.10938 21.9688 4.98438C22.0938 4.85938 22.2552 4.79688 22.4531 4.79688H26.6562C26.8438 4.79688 26.9948 4.85938 27.1094 4.98438C27.2344 5.10938 27.2969 5.26562 27.2969 5.45312C27.2969 5.65104 27.2344 5.8125 27.1094 5.9375C26.9948 6.05208 26.8438 6.10938 26.6562 6.10938H22.4531ZM2.17188 9.73438V8.10938H30.8438V9.73438H2.17188ZM6.90625 22.625C6.44792 22.625 6.07812 22.4896 5.79688 22.2188C5.52604 21.9479 5.39062 21.5833 5.39062 21.125V13.2344C5.39062 12.776 5.52604 12.4115 5.79688 12.1406C6.07812 11.8594 6.44792 11.7188 6.90625 11.7188H26.0781C26.5469 11.7188 26.9167 11.8594 27.1875 12.1406C27.4583 12.4115 27.5938 12.776 27.5938 13.2344V21.125C27.5938 21.5833 27.4583 21.9479 27.1875 22.2188C26.9167 22.4896 26.5469 22.625 26.0781 22.625H6.90625ZM7.35938 21.2188H25.6406C26.0052 21.2188 26.1875 21.0365 26.1875 20.6719V13.6875C26.1875 13.3125 26.0052 13.125 25.6406 13.125H7.35938C6.99479 13.125 6.8125 13.3125 6.8125 13.6875V20.6719C6.8125 21.0365 6.99479 21.2188 7.35938 21.2188ZM6.51562 16.2969V14.8906H26.4844V16.2969H6.51562Z" fill="white"/>
</svg>
