<svg width="22" height="35" viewBox="0 0 22 35" fill="none" xmlns="http://www.w3.org/2000/svg">
<path d="M3.39062 34.8594C2.41146 34.8594 1.61458 34.5417 1 33.9062C0.395833 33.2708 0.09375 32.4323 0.09375 31.3906V4C0.09375 2.95833 0.395833 2.11979 1 1.48438C1.61458 0.848958 2.41146 0.53125 3.39062 0.53125H18.5938C19.5833 0.53125 20.3802 0.848958 20.9844 1.48438C21.5885 2.11979 21.8906 2.95833 21.8906 4V31.3906C21.8906 32.4323 21.5885 33.2708 20.9844 33.9062C20.3802 34.5417 19.5833 34.8594 18.5938 34.8594H3.39062ZM3.45312 32.9219H18.5312C18.9583 32.9219 19.3021 32.7812 19.5625 32.5C19.8333 32.2292 19.9688 31.8594 19.9688 31.3906V4.01562C19.9688 3.54688 19.8333 3.17188 19.5625 2.89062C19.3021 2.60938 18.9583 2.46875 18.5312 2.46875H3.45312C3.02604 2.46875 2.67708 2.60938 2.40625 2.89062C2.14583 3.17188 2.01562 3.54688 2.01562 4.01562V31.3906C2.01562 31.8594 2.14583 32.2292 2.40625 32.5C2.67708 32.7812 3.02604 32.9219 3.45312 32.9219ZM5.0625 9.51562C4.86458 9.51562 4.70312 9.45833 4.57812 9.34375C4.45312 9.21875 4.39062 9.05729 4.39062 8.85938V5.26562C4.39062 5.06771 4.45312 4.90625 4.57812 4.78125C4.70312 4.65625 4.86458 4.59375 5.0625 4.59375C5.25 4.59375 5.40104 4.65625 5.51562 4.78125C5.64062 4.90625 5.70312 5.06771 5.70312 5.26562V8.85938C5.70312 9.05729 5.64062 9.21875 5.51562 9.34375C5.40104 9.45833 5.25 9.51562 5.0625 9.51562ZM1.45312 13.6719V12.0469H20.5312V13.6719H1.45312ZM5.0625 20.2812C4.86458 20.2812 4.70312 20.224 4.57812 20.1094C4.45312 19.9844 4.39062 19.8281 4.39062 19.6406V16.0312C4.39062 15.8438 4.45312 15.6927 4.57812 15.5781C4.70312 15.4531 4.86458 15.3906 5.0625 15.3906C5.25 15.3906 5.40104 15.4531 5.51562 15.5781C5.64062 15.6927 5.70312 15.8438 5.70312 16.0312V19.6406C5.70312 19.8281 5.64062 19.9844 5.51562 20.1094C5.40104 20.224 5.25 20.2812 5.0625 20.2812ZM1.45312 30.3906V28.7812H20.5312V30.3906H1.45312Z" fill="white"/>
</svg>
