<svg width="17" height="17" viewBox="0 0 17 17" fill="none" xmlns="http://www.w3.org/2000/svg">
<path d="M7.33398 15.6968V9.59717C7.33398 8.88818 7.53906 8.33447 7.94922 7.93604C8.36523 7.5376 8.93652 7.33838 9.66309 7.33838H15.6309V8.41943H9.68945C9.28516 8.41943 8.97168 8.52783 8.74902 8.74463C8.52637 8.95557 8.41504 9.25439 8.41504 9.64111V15.6968H7.33398ZM2.8252 16.1362C1.96973 16.1362 1.3252 15.9194 0.891602 15.4858C0.458008 15.0581 0.241211 14.4224 0.241211 13.5786V2.79443C0.241211 1.94482 0.458008 1.30615 0.891602 0.878418C1.3252 0.444824 1.96973 0.228027 2.8252 0.228027H13.5566C14.418 0.228027 15.0654 0.447754 15.499 0.887207C15.9326 1.3208 16.1494 1.95654 16.1494 2.79443V13.5786C16.1494 14.4224 15.9326 15.0581 15.499 15.4858C15.0654 15.9194 14.418 16.1362 13.5566 16.1362H2.8252ZM2.85156 15.0552H13.5391C14.0254 15.0552 14.4004 14.9263 14.6641 14.6685C14.9336 14.4106 15.0684 14.0269 15.0684 13.5171V2.85596C15.0684 2.34619 14.9336 1.9624 14.6641 1.70459C14.4004 1.44092 14.0254 1.30908 13.5391 1.30908H2.85156C2.35352 1.30908 1.97266 1.44092 1.70898 1.70459C1.45117 1.9624 1.32227 2.34619 1.32227 2.85596V13.5171C1.32227 14.0269 1.45117 14.4106 1.70898 14.6685C1.97266 14.9263 2.35352 15.0552 2.85156 15.0552Z" fill="white"/>
</svg>
