<svg width="31" height="33" viewBox="0 0 31 33" fill="none" xmlns="http://www.w3.org/2000/svg">
<path d="M3.71875 32.2656C2.72917 32.2656 1.92708 31.9479 1.3125 31.3125C0.708333 30.6875 0.40625 29.8542 0.40625 28.8125V3.98438C0.40625 2.94271 0.708333 2.10417 1.3125 1.46875C1.92708 0.833333 2.72917 0.515625 3.71875 0.515625H23.3125C24.2917 0.515625 25.0833 0.833333 25.6875 1.46875C26.2917 2.10417 26.5938 2.94271 26.5938 3.98438V20.2188C26.3229 20.1354 26.0104 20.0938 25.6562 20.0938C25.3125 20.0833 24.9844 20.1146 24.6719 20.1875V3.98438C24.6719 3.52604 24.5417 3.15625 24.2812 2.875C24.0208 2.58333 23.6719 2.4375 23.2344 2.4375H3.76562C3.33854 2.4375 2.98958 2.58333 2.71875 2.875C2.45833 3.15625 2.32812 3.52604 2.32812 3.98438V28.8125C2.32812 29.2812 2.45833 29.651 2.71875 29.9219C2.98958 30.2031 3.33854 30.3438 3.76562 30.3438H14.8438L15.3281 31.6562C15.3802 31.7708 15.4323 31.8802 15.4844 31.9844C15.5469 32.0885 15.6042 32.1823 15.6562 32.2656H3.71875ZM5.90625 6.79688C5.53125 6.79688 5.20833 6.66146 4.9375 6.39062C4.66667 6.11979 4.53125 5.79167 4.53125 5.40625C4.53125 5.03125 4.66667 4.70833 4.9375 4.4375C5.20833 4.16667 5.53125 4.03125 5.90625 4.03125C6.29167 4.03125 6.61458 4.16667 6.875 4.4375C7.14583 4.70833 7.28125 5.03125 7.28125 5.40625C7.28125 5.79167 7.14583 6.11979 6.875 6.39062C6.61458 6.66146 6.29167 6.79688 5.90625 6.79688ZM9.89062 6.79688C9.51562 6.79688 9.19271 6.66146 8.92188 6.39062C8.66146 6.11979 8.53125 5.79167 8.53125 5.40625C8.53125 5.03125 8.66146 4.70833 8.92188 4.4375C9.19271 4.16667 9.51562 4.03125 9.89062 4.03125C10.276 4.03125 10.599 4.16667 10.8594 4.4375C11.1302 4.70833 11.2656 5.03125 11.2656 5.40625C11.2656 5.79167 11.1302 6.11979 10.8594 6.39062C10.599 6.66146 10.276 6.79688 9.89062 6.79688ZM17.7812 6.0625C17.5938 6.0625 17.4375 6.00521 17.3125 5.89062C17.1875 5.76562 17.125 5.60417 17.125 5.40625C17.125 5.21875 17.1875 5.0625 17.3125 4.9375C17.4375 4.8125 17.5938 4.75 17.7812 4.75H21.7344C21.9219 4.75 22.0781 4.8125 22.2031 4.9375C22.3281 5.0625 22.3906 5.21875 22.3906 5.40625C22.3906 5.60417 22.3281 5.76562 22.2031 5.89062C22.0781 6.00521 21.9219 6.0625 21.7344 6.0625H17.7812ZM1.42188 10V8.375H25.5V10H1.42188ZM5.5625 20.1719C5.5625 18.7031 5.91667 17.3698 6.625 16.1719C7.34375 14.974 8.30208 14.0208 9.5 13.3125C10.7083 12.5938 12.0469 12.2344 13.5156 12.2344C14.974 12.2344 16.3021 12.5938 17.5 13.3125C18.6979 14.0208 19.651 14.974 20.3594 16.1719C21.0781 17.3698 21.4375 18.7031 21.4375 20.1719C21.4375 20.3385 21.4323 20.5052 21.4219 20.6719C21.4115 20.8385 21.3958 21.0052 21.375 21.1719C21.1979 21.0885 20.9896 21 20.75 20.9062C20.5104 20.8125 20.2708 20.7344 20.0312 20.6719C20.0417 20.5781 20.0469 20.4896 20.0469 20.4062C20.0573 20.3125 20.0625 20.2188 20.0625 20.125C20.0625 18.9167 19.7708 17.8229 19.1875 16.8438C18.6042 15.8542 17.8125 15.0677 16.8125 14.4844C15.8229 13.901 14.724 13.6094 13.5156 13.6094C12.2865 13.6094 11.1771 13.901 10.1875 14.4844C9.19792 15.0677 8.41146 15.8594 7.82812 16.8594C7.24479 17.849 6.95312 18.9531 6.95312 20.1719C6.95312 21.1302 7.13021 22.0104 7.48438 22.8125C7.84896 23.6042 8.33333 24.2969 8.9375 24.8906C9.54167 25.474 10.2135 25.9271 10.9531 26.25C11.7031 26.5625 12.4635 26.7188 13.2344 26.7188C13.276 26.7188 13.3229 26.7188 13.375 26.7188C13.4271 26.7188 13.4688 26.7188 13.5 26.7188C13.5938 26.9479 13.6771 27.1771 13.75 27.4062C13.8229 27.625 13.901 27.8542 13.9844 28.0938C13.9115 28.0938 13.8333 28.0938 13.75 28.0938C13.6771 28.0938 13.599 28.0938 13.5156 28.0938C12.4115 28.0938 11.3802 27.8906 10.4219 27.4844C9.46354 27.0781 8.61979 26.5104 7.89062 25.7812C7.16146 25.0521 6.58854 24.2083 6.17188 23.25C5.76562 22.2917 5.5625 21.2656 5.5625 20.1719ZM21.8438 24.1562C21.2292 24.1562 20.7292 24.0521 20.3438 23.8438C19.9688 23.6354 19.6198 23.4323 19.2969 23.2344C18.974 23.026 18.5677 22.9219 18.0781 22.9219C17.7135 22.9219 17.3906 22.9896 17.1094 23.125C16.8385 23.25 16.5417 23.4062 16.2188 23.5938C15.9062 23.7708 15.5156 23.9271 15.0469 24.0625L14.7969 22.9219C15.1927 22.7656 15.5521 22.5938 15.875 22.4062C16.2083 22.2083 16.5469 22.0417 16.8906 21.9062C17.2344 21.7604 17.6302 21.6875 18.0781 21.6875C18.7135 21.6875 19.224 21.7917 19.6094 22C20.0052 22.1979 20.3646 22.401 20.6875 22.6094C21.0104 22.8177 21.3958 22.9219 21.8438 22.9219C22.2708 22.9219 22.6458 22.8177 22.9688 22.6094C23.3021 22.401 23.6615 22.1979 24.0469 22C24.4427 21.7917 24.9583 21.6875 25.5938 21.6875C26.0417 21.6875 26.4375 21.7604 26.7812 21.9062C27.125 22.0417 27.4635 22.2083 27.7969 22.4062C28.1302 22.5938 28.4896 22.7656 28.875 22.9219L28.625 24.0625C28.1562 23.9271 27.7604 23.7708 27.4375 23.5938C27.125 23.4062 26.8281 23.25 26.5469 23.125C26.2656 22.9896 25.9479 22.9219 25.5938 22.9219C25.1146 22.9219 24.7083 23.026 24.375 23.2344C24.0417 23.4323 23.6875 23.6354 23.3125 23.8438C22.9479 24.0521 22.4583 24.1562 21.8438 24.1562ZM18.6406 32.3125C18.2448 32.3125 17.875 32.1979 17.5312 31.9688C17.1979 31.7396 16.9479 31.3958 16.7812 30.9375L13.7031 22.625C13.6094 22.3646 13.6094 22.1354 13.7031 21.9375C13.8073 21.7396 13.9531 21.6094 14.1406 21.5469C14.3281 21.4635 14.526 21.4635 14.7344 21.5469C14.9531 21.6198 15.1094 21.7917 15.2031 22.0625L18.1875 30.0625C18.2708 30.3021 18.375 30.4688 18.5 30.5625C18.6354 30.6562 18.7969 30.7031 18.9844 30.7031H24.6875C24.8646 30.7031 25.0208 30.6562 25.1562 30.5625C25.2917 30.4688 25.401 30.3021 25.4844 30.0625L28.4531 22.0625C28.5573 21.7917 28.7135 21.6198 28.9219 21.5469C29.1406 21.4635 29.3438 21.4635 29.5312 21.5469C29.7188 21.6094 29.8646 21.7396 29.9688 21.9375C30.0729 22.1354 30.0781 22.3646 29.9844 22.625L26.9062 30.9375C26.7292 31.3958 26.4688 31.7396 26.125 31.9688C25.7917 32.1979 25.4271 32.3125 25.0312 32.3125H18.6406Z" fill="white"/>
</svg>
