<svg width="30" height="30" viewBox="0 0 30 30" fill="none" xmlns="http://www.w3.org/2000/svg">
<path d="M3.60938 26.7188C2.60938 26.7188 1.80208 26.4062 1.1875 25.7812C0.583333 25.1458 0.28125 24.3177 0.28125 23.2969V3.48438C0.28125 2.45312 0.583333 1.625 1.1875 1C1.80208 0.375 2.60938 0.0625 3.60938 0.0625H26.3594C27.3594 0.0625 28.1667 0.375 28.7812 1C29.3958 1.625 29.7031 2.45312 29.7031 3.48438V23.2969C29.7031 24.3177 29.3958 25.1458 28.7812 25.7812C28.1667 26.4062 27.3594 26.7188 26.3594 26.7188H3.60938ZM3.625 24.7969H26.3594C26.7865 24.7969 27.1302 24.6562 27.3906 24.375C27.651 24.0833 27.7812 23.7031 27.7812 23.2344V3.54688C27.7812 3.07812 27.651 2.70312 27.3906 2.42188C27.1302 2.13021 26.7865 1.98438 26.3594 1.98438H3.625C3.19792 1.98438 2.85417 2.13021 2.59375 2.42188C2.33333 2.70312 2.20312 3.07812 2.20312 3.54688V23.2344C2.20312 23.7031 2.33333 24.0833 2.59375 24.375C2.85417 24.6562 3.19792 24.7969 3.625 24.7969ZM6.85938 6.48438C6.45312 6.48438 6.10417 6.34375 5.8125 6.0625C5.52083 5.77083 5.375 5.42188 5.375 5.01562C5.375 4.59896 5.52083 4.25 5.8125 3.96875C6.10417 3.6875 6.45312 3.54688 6.85938 3.54688C7.26562 3.54688 7.61458 3.6875 7.90625 3.96875C8.19792 4.25 8.34375 4.59896 8.34375 5.01562C8.34375 5.42188 8.19792 5.77083 7.90625 6.0625C7.61458 6.34375 7.26562 6.48438 6.85938 6.48438ZM12.2656 6.48438C11.849 6.48438 11.4948 6.34375 11.2031 6.0625C10.9115 5.77083 10.7656 5.42188 10.7656 5.01562C10.7656 4.59896 10.9115 4.25 11.2031 3.96875C11.4948 3.6875 11.849 3.54688 12.2656 3.54688C12.6719 3.54688 13.0156 3.6875 13.2969 3.96875C13.5885 4.25 13.7344 4.59896 13.7344 5.01562C13.7344 5.42188 13.5885 5.77083 13.2969 6.0625C13.0156 6.34375 12.6719 6.48438 12.2656 6.48438ZM17.6406 6.48438C17.2344 6.48438 16.8854 6.34375 16.5938 6.0625C16.3021 5.77083 16.1562 5.42188 16.1562 5.01562C16.1562 4.59896 16.3021 4.25 16.5938 3.96875C16.8854 3.6875 17.2344 3.54688 17.6406 3.54688C18.0573 3.54688 18.4062 3.6875 18.6875 3.96875C18.9688 4.25 19.1094 4.59896 19.1094 5.01562C19.1094 5.42188 18.9688 5.77083 18.6875 6.0625C18.4062 6.34375 18.0573 6.48438 17.6406 6.48438ZM23.0312 6.48438C22.625 6.48438 22.276 6.34375 21.9844 6.0625C21.7031 5.77083 21.5625 5.42188 21.5625 5.01562C21.5625 4.59896 21.7031 4.25 21.9844 3.96875C22.276 3.6875 22.625 3.54688 23.0312 3.54688C23.4479 3.54688 23.7969 3.6875 24.0781 3.96875C24.3698 4.25 24.5156 4.59896 24.5156 5.01562C24.5156 5.42188 24.3698 5.77083 24.0781 6.0625C23.7969 6.34375 23.4479 6.48438 23.0312 6.48438ZM1.46875 9.60938V8H28.5312V9.60938H1.46875ZM5.89062 22.75C5.43229 22.75 5.06771 22.6146 4.79688 22.3438C4.52604 22.0729 4.39062 21.7031 4.39062 21.2344V13.1719C4.39062 12.7135 4.52604 12.3438 4.79688 12.0625C5.06771 11.7812 5.43229 11.6406 5.89062 11.6406H24.0781C24.5365 11.6406 24.901 11.7812 25.1719 12.0625C25.4531 12.3438 25.5938 12.7135 25.5938 13.1719V21.2344C25.5938 21.7031 25.4531 22.0729 25.1719 22.3438C24.901 22.6146 24.5365 22.75 24.0781 22.75H5.89062ZM6.34375 21.3438H23.6406C24.0052 21.3438 24.1875 21.1615 24.1875 20.7969V13.625C24.1875 13.25 24.0052 13.0625 23.6406 13.0625H6.34375C5.97917 13.0625 5.79688 13.25 5.79688 13.625V20.7969C5.79688 21.1615 5.97917 21.3438 6.34375 21.3438ZM4.26562 29.375C3.98438 29.375 3.75521 29.2865 3.57812 29.1094C3.40104 28.9323 3.3125 28.7031 3.3125 28.4219V25.5469H5.23438V28.4219C5.23438 28.7031 5.14583 28.9323 4.96875 29.1094C4.79167 29.2865 4.55729 29.375 4.26562 29.375ZM25.7031 29.375C25.4219 29.375 25.1875 29.2865 25 29.1094C24.8229 28.9323 24.7344 28.7031 24.7344 28.4219V25.5469H26.6719V28.4219C26.6719 28.7031 26.5781 28.9323 26.3906 29.1094C26.2135 29.2865 25.9844 29.375 25.7031 29.375Z" fill="white"/>
</svg>
