<svg width="30" height="34" viewBox="0 0 30 34" fill="none" xmlns="http://www.w3.org/2000/svg">
<path d="M3.71875 32.2969C2.72917 32.2969 1.92708 31.9792 1.3125 31.3438C0.708333 30.7083 0.40625 29.875 0.40625 28.8438V4C0.40625 2.96875 0.708333 2.13542 1.3125 1.5C1.92708 0.864583 2.72917 0.546875 3.71875 0.546875H23.3125C24.2917 0.546875 25.0833 0.864583 25.6875 1.5C26.2917 2.13542 26.5938 2.96875 26.5938 4V18.6562C26.3021 18.4792 25.9948 18.3177 25.6719 18.1719C25.349 18.026 25.0156 17.9115 24.6719 17.8281V4.01562C24.6719 3.54688 24.5417 3.17188 24.2812 2.89062C24.0208 2.60938 23.6719 2.46875 23.2344 2.46875H3.76562C3.33854 2.46875 2.98958 2.60938 2.71875 2.89062C2.45833 3.17188 2.32812 3.54688 2.32812 4.01562V28.8281C2.32812 29.2969 2.45833 29.6719 2.71875 29.9531C2.98958 30.2344 3.33854 30.375 3.76562 30.375H10.8281C10.974 30.7292 11.1458 31.0625 11.3438 31.375C11.5521 31.6979 11.7865 32.0052 12.0469 32.2969H3.71875ZM5.90625 6.8125C5.53125 6.8125 5.20833 6.67708 4.9375 6.40625C4.66667 6.13542 4.53125 5.80729 4.53125 5.42188C4.53125 5.04688 4.66667 4.72396 4.9375 4.45312C5.20833 4.18229 5.53125 4.04688 5.90625 4.04688C6.29167 4.04688 6.61458 4.18229 6.875 4.45312C7.14583 4.72396 7.28125 5.04688 7.28125 5.42188C7.28125 5.80729 7.14583 6.13542 6.875 6.40625C6.61458 6.67708 6.29167 6.8125 5.90625 6.8125ZM9.89062 6.8125C9.51562 6.8125 9.19271 6.67708 8.92188 6.40625C8.66146 6.13542 8.53125 5.80729 8.53125 5.42188C8.53125 5.04688 8.66146 4.72396 8.92188 4.45312C9.19271 4.18229 9.51562 4.04688 9.89062 4.04688C10.276 4.04688 10.599 4.18229 10.8594 4.45312C11.1302 4.72396 11.2656 5.04688 11.2656 5.42188C11.2656 5.80729 11.1302 6.13542 10.8594 6.40625C10.599 6.67708 10.276 6.8125 9.89062 6.8125ZM1.4375 10.0156V8.40625H25.5781V10.0156H1.4375ZM9.9375 13.5469C9.73958 13.5469 9.57812 13.4896 9.45312 13.375C9.32812 13.25 9.26562 13.0885 9.26562 12.8906C9.26562 12.7031 9.32812 12.5521 9.45312 12.4375C9.57812 12.3125 9.73958 12.25 9.9375 12.25H17.0938C17.2812 12.25 17.4375 12.3125 17.5625 12.4375C17.6875 12.5521 17.75 12.7031 17.75 12.8906C17.75 13.0885 17.6875 13.25 17.5625 13.375C17.4375 13.4896 17.2812 13.5469 17.0938 13.5469H9.9375ZM1.25 28.2656V26.6562H9.79688C9.79688 26.9375 9.80208 27.2031 9.8125 27.4531C9.83333 27.7031 9.88021 27.974 9.95312 28.2656H1.25ZM18.6719 33.5938C17.6406 33.5938 16.6771 33.401 15.7812 33.0156C14.8854 32.6406 14.099 32.1146 13.4219 31.4375C12.7552 30.7604 12.2292 29.974 11.8438 29.0781C11.4688 28.1927 11.2812 27.2344 11.2812 26.2031C11.2812 25.1615 11.4688 24.1979 11.8438 23.3125C12.2292 22.4167 12.7552 21.6302 13.4219 20.9531C14.099 20.276 14.8854 19.75 15.7812 19.375C16.6771 18.9896 17.6406 18.7969 18.6719 18.7969C19.7031 18.7969 20.6667 18.9896 21.5625 19.375C22.4583 19.75 23.2396 20.276 23.9062 20.9531C24.5833 21.6302 25.1094 22.4167 25.4844 23.3125C25.8698 24.1979 26.0625 25.1615 26.0625 26.2031C26.0625 27.2344 25.8698 28.1927 25.4844 29.0781C25.1094 29.974 24.5833 30.7604 23.9062 31.4375C23.2396 32.1146 22.4583 32.6406 21.5625 33.0156C20.6667 33.401 19.7031 33.5938 18.6719 33.5938ZM18.6719 32.2812C19.8281 32.2812 20.8646 32.0156 21.7812 31.4844C22.6979 30.9531 23.4219 30.224 23.9531 29.2969C24.4844 28.3802 24.75 27.349 24.75 26.2031C24.75 25.0469 24.4844 24.0104 23.9531 23.0938C23.4219 22.1667 22.6979 21.4375 21.7812 20.9062C20.8646 20.375 19.8281 20.1094 18.6719 20.1094C17.5052 20.1094 16.4635 20.375 15.5469 20.9062C14.6406 21.4375 13.9219 22.1667 13.3906 23.0938C12.8594 24.0104 12.5938 25.0469 12.5938 26.2031C12.5938 27.349 12.8594 28.3802 13.3906 29.2969C13.9219 30.224 14.6406 30.9531 15.5469 31.4844C16.4635 32.0156 17.5052 32.2812 18.6719 32.2812ZM18.6719 30.8281C17.8177 30.8281 17.0365 30.6198 16.3281 30.2031C15.6302 29.7865 15.0729 29.2292 14.6562 28.5312C14.2396 27.8333 14.0312 27.0573 14.0312 26.2031C14.0312 25.3385 14.2396 24.5573 14.6562 23.8594C15.0729 23.1615 15.6302 22.6042 16.3281 22.1875C17.0365 21.7708 17.8177 21.5625 18.6719 21.5625C19.526 21.5625 20.3021 21.7708 21 22.1875C21.7083 22.5938 22.2708 23.151 22.6875 23.8594C23.1042 24.5573 23.3125 25.3385 23.3125 26.2031C23.3125 27.0573 23.1042 27.8333 22.6875 28.5312C22.2708 29.2292 21.7083 29.7865 21 30.2031C20.3021 30.6198 19.526 30.8281 18.6719 30.8281ZM18.6719 29.625C19.6719 29.625 20.4896 29.3021 21.125 28.6562C21.7708 28.0208 22.0938 27.2031 22.0938 26.2031C22.0938 25.1823 21.776 24.3594 21.1406 23.7344C20.5052 23.099 19.6823 22.7812 18.6719 22.7812C17.6615 22.7812 16.8333 23.099 16.1875 23.7344C15.5521 24.3698 15.2344 25.1927 15.2344 26.2031C15.2344 27.2031 15.5521 28.0208 16.1875 28.6562C16.8333 29.3021 17.6615 29.625 18.6719 29.625ZM21.6562 33.5938C21.0625 33.5938 20.4844 33.5208 19.9219 33.375L21.0156 32.25C21.1198 32.2604 21.224 32.2656 21.3281 32.2656C21.4427 32.276 21.5521 32.2812 21.6562 32.2812C22.8125 32.2812 23.849 32.0156 24.7656 31.4844C25.6823 30.9531 26.4062 30.224 26.9375 29.2969C27.4688 28.3802 27.7344 27.349 27.7344 26.2031C27.7344 25.0469 27.4688 24.0104 26.9375 23.0938C26.4062 22.1667 25.6823 21.4375 24.7656 20.9062C23.849 20.375 22.8125 20.1094 21.6562 20.1094C21.5521 20.1094 21.4427 20.1146 21.3281 20.125C21.224 20.1354 21.1146 20.1458 21 20.1562L19.4688 19.1562C20.1562 18.9167 20.8854 18.7969 21.6562 18.7969C22.6875 18.7969 23.651 18.9896 24.5469 19.375C25.4427 19.75 26.224 20.276 26.8906 20.9531C27.5677 21.6302 28.0938 22.4167 28.4688 23.3125C28.8542 24.1979 29.0469 25.1615 29.0469 26.2031C29.0469 27.2344 28.8542 28.1927 28.4688 29.0781C28.0938 29.974 27.5677 30.7604 26.8906 31.4375C26.224 32.1146 25.4427 32.6406 24.5469 33.0156C23.651 33.401 22.6875 33.5938 21.6562 33.5938Z" fill="white"/>
</svg>
