<svg width="33" height="28" viewBox="0 0 33 28" fill="none" xmlns="http://www.w3.org/2000/svg">
<path d="M1.28125 9.25C1.01042 9.33333 0.776042 9.32812 0.578125 9.23438C0.380208 9.13021 0.255208 8.97396 0.203125 8.76562C0.130208 8.55729 0.140625 8.35938 0.234375 8.17188C0.328125 7.97396 0.5 7.83333 0.75 7.75C1.875 7.34375 3.0625 7.02604 4.3125 6.79688C5.5625 6.55729 6.82292 6.4375 8.09375 6.4375C9.14583 6.4375 10.1042 6.48438 10.9688 6.57812C11.8333 6.66146 12.6719 6.75 13.4844 6.84375C14.3073 6.92708 15.1823 6.96875 16.1094 6.96875C16.9427 6.96875 17.6094 6.72917 18.1094 6.25C18.6094 5.77083 18.8594 5.15104 18.8594 4.39062C18.8594 3.64062 18.6146 3.02604 18.125 2.54688C17.6458 2.06771 17.0469 1.82812 16.3281 1.82812C15.7448 1.82812 15.2292 2.00521 14.7812 2.35938C14.3333 2.70312 14.0312 3.11979 13.875 3.60938C13.7604 3.84896 13.6042 4.01042 13.4062 4.09375C13.2083 4.16667 13.0104 4.16146 12.8125 4.07812C12.5938 3.98438 12.4531 3.83854 12.3906 3.64062C12.3281 3.43229 12.3385 3.22396 12.4219 3.01562C12.6927 2.23438 13.1771 1.57812 13.875 1.04688C14.5833 0.505208 15.401 0.234375 16.3281 0.234375C17.099 0.234375 17.7969 0.416667 18.4219 0.78125C19.0469 1.13542 19.5417 1.625 19.9062 2.25C20.2708 2.875 20.4531 3.58854 20.4531 4.39062C20.4531 5.18229 20.276 5.89583 19.9219 6.53125C19.5677 7.15625 19.0625 7.65104 18.4062 8.01562C17.7604 8.38021 16.9948 8.5625 16.1094 8.5625C15.151 8.5625 14.2552 8.52083 13.4219 8.4375C12.599 8.34375 11.7604 8.25521 10.9062 8.17188C10.0521 8.07812 9.11458 8.03125 8.09375 8.03125C5.76042 8.03125 3.48958 8.4375 1.28125 9.25ZM26 16.3281C24.6875 16.3281 23.3854 16.1927 22.0938 15.9219C20.8125 15.6406 19.5156 15.3229 18.2031 14.9688C16.8906 14.6042 15.5312 14.2865 14.125 14.0156C12.7188 13.7448 11.2396 13.6094 9.6875 13.6094C8.10417 13.6094 6.625 13.724 5.25 13.9531C3.875 14.1823 2.54688 14.5677 1.26562 15.1094C1.00521 15.1927 0.776042 15.1875 0.578125 15.0938C0.380208 14.9896 0.255208 14.8333 0.203125 14.625C0.130208 14.4167 0.140625 14.2135 0.234375 14.0156C0.338542 13.8177 0.510417 13.6771 0.75 13.5938C2.125 13.0833 3.54688 12.6927 5.01562 12.4219C6.48438 12.151 8.04167 12.0156 9.6875 12.0156C11.2604 12.0156 12.7656 12.1562 14.2031 12.4375C15.6406 12.7083 17.0312 13.0208 18.375 13.375C19.7188 13.7292 21.0208 14.0469 22.2812 14.3281C23.5521 14.599 24.7917 14.7344 26 14.7344C27.3646 14.7344 28.4479 14.3906 29.25 13.7031C30.0521 13.0052 30.4531 12.099 30.4531 10.9844C30.4531 10.2865 30.2865 9.66146 29.9531 9.10938C29.6302 8.54688 29.1875 8.10938 28.625 7.79688C28.0729 7.47396 27.4583 7.3125 26.7812 7.3125C26.1562 7.3125 25.5885 7.45312 25.0781 7.73438C24.5781 8.00521 24.1615 8.38021 23.8281 8.85938C23.5052 9.32812 23.3021 9.85938 23.2188 10.4531C23.1771 10.724 23.0677 10.9323 22.8906 11.0781C22.724 11.2135 22.526 11.2656 22.2969 11.2344C22.0781 11.2135 21.901 11.1146 21.7656 10.9375C21.6406 10.75 21.5938 10.5312 21.625 10.2812C21.7292 9.42708 22.0104 8.65625 22.4688 7.96875C22.9375 7.28125 23.5417 6.73438 24.2812 6.32812C25.0208 5.92188 25.8542 5.71875 26.7812 5.71875C27.75 5.71875 28.6302 5.94792 29.4219 6.40625C30.224 6.86458 30.8594 7.49479 31.3281 8.29688C31.8073 9.08854 32.0469 9.98438 32.0469 10.9844C32.0469 12.026 31.7917 12.9479 31.2812 13.75C30.7812 14.5521 30.0781 15.1823 29.1719 15.6406C28.2656 16.099 27.2083 16.3281 26 16.3281ZM16.1406 27.2188C15.026 27.2188 14.099 26.8698 13.3594 26.1719C12.6302 25.474 12.2031 24.5938 12.0781 23.5312C12.0365 23.2812 12.0729 23.0573 12.1875 22.8594C12.3125 22.6615 12.5104 22.5521 12.7812 22.5312C13.0417 22.5208 13.25 22.5938 13.4062 22.75C13.5729 22.9062 13.6719 23.099 13.7031 23.3281C13.8177 24.0469 14.0833 24.6094 14.5 25.0156C14.9271 25.4219 15.474 25.625 16.1406 25.625C16.8281 25.625 17.4062 25.3958 17.875 24.9375C18.3438 24.4792 18.5781 23.8698 18.5781 23.1094C18.5781 21.8906 17.8229 20.9323 16.3125 20.2344C14.8021 19.5365 12.6146 19.1875 9.75 19.1875C8.29167 19.1875 6.83333 19.3177 5.375 19.5781C3.91667 19.8281 2.54688 20.1927 1.26562 20.6719C1.00521 20.7552 0.776042 20.7448 0.578125 20.6406C0.380208 20.5365 0.255208 20.3802 0.203125 20.1719C0.130208 19.974 0.140625 19.776 0.234375 19.5781C0.338542 19.3802 0.515625 19.2344 0.765625 19.1406C2.09896 18.6719 3.55208 18.2969 5.125 18.0156C6.69792 17.724 8.23958 17.5781 9.75 17.5781C13.1146 17.5781 15.6927 18.0573 17.4844 19.0156C19.276 19.974 20.1719 21.3385 20.1719 23.1094C20.1719 23.9115 19.9948 24.6198 19.6406 25.2344C19.2865 25.849 18.8021 26.3333 18.1875 26.6875C17.5833 27.0417 16.901 27.2188 16.1406 27.2188Z" fill="white"/>
</svg>
