<svg width="30" height="24" viewBox="0 0 37 24" fill="none" xmlns="http://www.w3.org/2000/svg">
<path d="M4.3125 23.25C3.3125 23.25 2.50521 22.9375 1.89062 22.3125C1.28646 21.6875 0.984375 20.8594 0.984375 19.8281V3.625C0.984375 2.59375 1.28646 1.76562 1.89062 1.14062C2.50521 0.515625 3.3125 0.203125 4.3125 0.203125H33.6719C34.6719 0.203125 35.474 0.515625 36.0781 1.14062C36.6927 1.76562 37 2.59375 37 3.625V19.8281C37 20.8594 36.6927 21.6875 36.0781 22.3125C35.474 22.9375 34.6719 23.25 33.6719 23.25H4.3125ZM4.32812 21.3438H33.6562C34.0938 21.3438 34.4375 21.1979 34.6875 20.9062C34.9479 20.6146 35.0781 20.2396 35.0781 19.7812V3.6875C35.0781 3.21875 34.9479 2.84375 34.6875 2.5625C34.4375 2.27083 34.0938 2.125 33.6562 2.125H4.32812C3.90104 2.125 3.55729 2.27083 3.29688 2.5625C3.03646 2.84375 2.90625 3.21875 2.90625 3.6875V19.7812C2.90625 20.2396 3.03646 20.6146 3.29688 20.9062C3.55729 21.1979 3.90104 21.3438 4.32812 21.3438ZM6.45312 19.2969C5.99479 19.2969 5.625 19.1615 5.34375 18.8906C5.07292 18.6094 4.9375 18.2396 4.9375 17.7812V5.6875C4.9375 5.21875 5.07292 4.84896 5.34375 4.57812C5.625 4.29688 5.99479 4.15625 6.45312 4.15625H21.4531C21.9219 4.15625 22.2917 4.29688 22.5625 4.57812C22.8333 4.84896 22.9688 5.21875 22.9688 5.6875V17.7812C22.9688 18.2396 22.8333 18.6094 22.5625 18.8906C22.2917 19.1615 21.9219 19.2969 21.4531 19.2969H6.45312ZM6.90625 17.8906H21C21.375 17.8906 21.5625 17.7031 21.5625 17.3281V6.14062C21.5625 5.76562 21.375 5.57812 21 5.57812H6.90625C6.53125 5.57812 6.34375 5.76562 6.34375 6.14062V17.3281C6.34375 17.7031 6.53125 17.8906 6.90625 17.8906ZM25.1094 22.2188V1.23438H26.5312V22.2188H25.1094ZM25.8594 17.2031V15.7969H36.0625V17.2031H25.8594ZM28.5 7.4375C28.4271 7.4375 28.3594 7.41146 28.2969 7.35938C28.2344 7.29688 28.2031 7.22917 28.2031 7.15625V4.45312C28.2031 4.36979 28.2344 4.30208 28.2969 4.25C28.3594 4.1875 28.4271 4.15625 28.5 4.15625H33.1094C33.1927 4.15625 33.2604 4.1875 33.3125 4.25C33.375 4.30208 33.4062 4.36979 33.4062 4.45312V7.15625C33.4062 7.22917 33.375 7.29688 33.3125 7.35938C33.2604 7.41146 33.1927 7.4375 33.1094 7.4375H28.5ZM28.875 9.82812C28.6771 9.82812 28.5156 9.77083 28.3906 9.65625C28.2656 9.53125 28.2031 9.375 28.2031 9.1875C28.2031 8.98958 28.2656 8.83333 28.3906 8.71875C28.5156 8.59375 28.6771 8.53125 28.875 8.53125H32.75C32.9375 8.53125 33.0938 8.59375 33.2188 8.71875C33.3438 8.83333 33.4062 8.98958 33.4062 9.1875C33.4062 9.375 33.3438 9.53125 33.2188 9.65625C33.0938 9.77083 32.9375 9.82812 32.75 9.82812H28.875ZM28.875 12.25C28.6771 12.25 28.5156 12.1927 28.3906 12.0781C28.2656 11.9531 28.2031 11.7917 28.2031 11.5938C28.2031 11.4062 28.2656 11.25 28.3906 11.125C28.5156 11 28.6771 10.9375 28.875 10.9375H32.75C32.9375 10.9375 33.0938 11 33.2188 11.125C33.3438 11.25 33.4062 11.4062 33.4062 11.5938C33.4062 11.7917 33.3438 11.9531 33.2188 12.0781C33.0938 12.1927 32.9375 12.25 32.75 12.25H28.875Z" fill="white"/>
</svg>
