<svg width="29" height="29" viewBox="0 0 29 29" fill="none" xmlns="http://www.w3.org/2000/svg">
<path d="M4.95312 28.8594C3.43229 28.8594 2.28646 28.474 1.51562 27.7031C0.744792 26.9427 0.359375 25.8125 0.359375 24.3125V5.14062C0.359375 3.63021 0.744792 2.49479 1.51562 1.73438C2.28646 0.963542 3.43229 0.578125 4.95312 0.578125H24.0312C25.5625 0.578125 26.7135 0.96875 27.4844 1.75C28.2552 2.52083 28.6406 3.65104 28.6406 5.14062V24.3125C28.6406 25.8125 28.2552 26.9427 27.4844 27.7031C26.7135 28.474 25.5625 28.8594 24.0312 28.8594H4.95312ZM11.0781 21.9688C11.401 21.9688 11.6458 21.8698 11.8125 21.6719C11.9896 21.474 12.0781 21.2031 12.0781 20.8594V16.8125H15.5C16.9479 16.8125 18.1198 16.3802 19.0156 15.5156C19.9219 14.6406 20.375 13.5156 20.375 12.1406C20.375 10.7552 19.9219 9.625 19.0156 8.75C18.1198 7.875 16.9531 7.4375 15.5156 7.4375H11.0625C10.75 7.4375 10.5104 7.54167 10.3438 7.75C10.1771 7.95833 10.0938 8.22396 10.0938 8.54688V20.8594C10.0938 21.1927 10.1771 21.4635 10.3438 21.6719C10.5208 21.8698 10.7656 21.9688 11.0781 21.9688ZM12.0781 15.2344V9.01562H15.2812C16.2188 9.01562 16.974 9.30208 17.5469 9.875C18.1302 10.4375 18.4219 11.1927 18.4219 12.1406C18.4219 13.0677 18.1354 13.8177 17.5625 14.3906C16.9896 14.9531 16.2292 15.2344 15.2812 15.2344H12.0781Z" fill="white"/>
</svg>
