<svg width="40" height="31" viewBox="0 0 40 31" fill="none" xmlns="http://www.w3.org/2000/svg">
<path d="M4.625 26C3.47917 26 2.58333 25.6771 1.9375 25.0312C1.30208 24.3854 0.984375 23.4896 0.984375 22.3438V4.32812C0.984375 3.18229 1.30208 2.28646 1.9375 1.64062C2.58333 0.994792 3.47917 0.671875 4.625 0.671875H35.375C36.5208 0.671875 37.4115 0.994792 38.0469 1.64062C38.6927 2.28646 39.0156 3.18229 39.0156 4.32812V22.3438C39.0156 23.4896 38.6927 24.3854 38.0469 25.0312C37.4115 25.6771 36.5208 26 35.375 26H4.625ZM4.6875 24.0781H35.3281C35.8906 24.0781 36.3281 23.9271 36.6406 23.625C36.9531 23.3125 37.1094 22.875 37.1094 22.3125V4.35938C37.1094 3.80729 36.9531 3.38021 36.6406 3.07812C36.3281 2.76562 35.8906 2.60938 35.3281 2.60938H4.6875C4.11458 2.60938 3.67188 2.76562 3.35938 3.07812C3.05729 3.38021 2.90625 3.80729 2.90625 4.35938V22.3125C2.90625 22.875 3.05729 23.3125 3.35938 23.625C3.67188 23.9271 4.11458 24.0781 4.6875 24.0781ZM12.3125 30.75C12.0521 30.75 11.8229 30.6562 11.625 30.4688C11.4375 30.2812 11.3438 30.0521 11.3438 29.7812C11.3438 29.5104 11.4375 29.2812 11.625 29.0938C11.8229 28.9167 12.0521 28.8281 12.3125 28.8281H27.6875C27.9583 28.8281 28.1875 28.9167 28.375 29.0938C28.5729 29.2812 28.6719 29.5104 28.6719 29.7812C28.6719 30.0521 28.5729 30.2812 28.375 30.4688C28.1875 30.6562 27.9583 30.75 27.6875 30.75H12.3125Z" fill="white"/>
</svg>
