<svg width="36" height="27" viewBox="0 0 36 27" fill="none" xmlns="http://www.w3.org/2000/svg">
<path d="M17.9844 26.5781C17.8385 26.5781 17.6823 26.526 17.5156 26.4219C17.349 26.3281 17.125 26.1406 16.8438 25.8594L13.0781 22.25C12.974 22.1458 12.9115 22.0365 12.8906 21.9219C12.8698 21.7969 12.8958 21.6719 12.9688 21.5469C13.4479 20.9115 14.1354 20.3542 15.0312 19.875C15.9375 19.3854 16.9219 19.1406 17.9844 19.1406C19.0365 19.1406 20.0052 19.375 20.8906 19.8438C21.7865 20.3125 22.474 20.8594 22.9531 21.4844C23.0677 21.6198 23.1094 21.7552 23.0781 21.8906C23.0573 22.026 22.9948 22.1458 22.8906 22.25L19.1406 25.8594C18.849 26.1406 18.6198 26.3281 18.4531 26.4219C18.2969 26.526 18.1406 26.5781 17.9844 26.5781ZM8.89062 18.0625L6.59375 15.75C6.46875 15.625 6.40104 15.4948 6.39062 15.3594C6.39062 15.2135 6.44271 15.0781 6.54688 14.9531C7.32812 13.9948 8.30729 13.1458 9.48438 12.4062C10.6719 11.6562 11.9896 11.0677 13.4375 10.6406C14.8958 10.2135 16.4115 10 17.9844 10C19.5677 10 21.0833 10.2135 22.5312 10.6406C23.9896 11.0677 25.3125 11.6562 26.5 12.4062C27.6875 13.1458 28.6667 13.9948 29.4375 14.9531C29.5417 15.0781 29.5885 15.2135 29.5781 15.3594C29.5677 15.5052 29.5052 15.6354 29.3906 15.75L27.0781 18.0469C26.9323 18.1823 26.776 18.25 26.6094 18.25C26.4427 18.25 26.2865 18.1771 26.1406 18.0312C25.1719 16.9792 23.9583 16.1146 22.5 15.4375C21.0521 14.7604 19.5469 14.4271 17.9844 14.4375C16.4427 14.4271 14.9427 14.7552 13.4844 15.4219C12.026 16.0885 10.8229 16.9479 9.875 18C9.72917 18.1562 9.56771 18.2396 9.39062 18.25C9.21354 18.2604 9.04688 18.1979 8.89062 18.0625ZM2.40625 11.5156L0.375 9.45312C0.260417 9.32812 0.197917 9.19271 0.1875 9.04688C0.177083 8.89062 0.223958 8.75 0.328125 8.625C1.53646 7.125 3.06771 5.79688 4.92188 4.64062C6.78646 3.47396 8.83854 2.55729 11.0781 1.89062C13.3177 1.22396 15.6198 0.890625 17.9844 0.890625C20.3594 0.890625 22.6615 1.22396 24.8906 1.89062C27.1302 2.55729 29.1771 3.47396 31.0312 4.64062C32.8958 5.80729 34.4323 7.13542 35.6406 8.625C35.7552 8.75 35.8073 8.89062 35.7969 9.04688C35.7969 9.19271 35.7344 9.32812 35.6094 9.45312L33.5625 11.5C33.4271 11.6458 33.2708 11.7188 33.0938 11.7188C32.9271 11.7188 32.776 11.651 32.6406 11.5156C30.7448 9.48438 28.5417 7.94271 26.0312 6.89062C23.5312 5.82812 20.849 5.29688 17.9844 5.29688C15.1406 5.29688 12.4688 5.82812 9.96875 6.89062C7.47917 7.94271 5.27604 9.47917 3.35938 11.5C3.22396 11.6458 3.06771 11.724 2.89062 11.7344C2.71354 11.7344 2.55208 11.6615 2.40625 11.5156Z" fill="white"/>
</svg>
